<?xml version="1.0" encoding="UTF-8" standalone="no"?>
<!DOCTYPE svg PUBLIC "-//W3C//DTD SVG 1.1//EN"
 "http://www.w3.org/Graphics/SVG/1.1/DTD/svg11.dtd">
<!-- Generated by graphviz version 2.47.0 (20210316.0004)
 -->
<!-- Title: dependencies Pages: 1 -->
<svg width="644pt" height="211pt"
 viewBox="0.00 0.00 644.00 211.00" xmlns="http://www.w3.org/2000/svg" xmlns:xlink="http://www.w3.org/1999/xlink">
<g id="graph0" class="graph" transform="scale(1 1) rotate(0) translate(4 207)">
<title>dependencies</title>
<polygon fill="white" stroke="transparent" points="-4,4 -4,-207 640,-207 640,4 -4,4"/>
<text text-anchor="start" x="297.01" y="-42.4" font-family="Times-12" font-weight="bold" font-size="14.00">Legend</text>
<polygon fill="#ffffb3" stroke="transparent" points="84,-10 84,-30 104,-30 104,-10 84,-10"/>
<text text-anchor="start" x="107.63" y="-15.4" font-family="Times-12" font-size="14.00"> &#160;Declarations</text>
<polygon fill="#8dd3c7" stroke="transparent" points="197,-10 197,-30 217,-30 217,-10 197,-10"/>
<text text-anchor="start" x="220.73" y="-15.4" font-family="Times-12" font-size="14.00"> &#160;Module</text>
<polygon fill="#80b1d3" stroke="transparent" points="283,-10 283,-30 303,-30 303,-10 283,-10"/>
<text text-anchor="start" x="306.78" y="-15.4" font-family="Times-12" font-size="14.00"> &#160;Bootstrap</text>
<polygon fill="#fdb462" stroke="transparent" points="380,-10 380,-30 400,-30 400,-10 380,-10"/>
<text text-anchor="start" x="403.67" y="-15.4" font-family="Times-12" font-size="14.00"> &#160;Providers</text>
<polygon fill="#fb8072" stroke="transparent" points="476,-10 476,-30 496,-30 496,-10 476,-10"/>
<text text-anchor="start" x="499.73" y="-15.4" font-family="Times-12" font-size="14.00"> &#160;Exports</text>
<g id="clust1" class="cluster">
<title>cluster_SaladModule</title>
<polygon fill="none" stroke="black" stroke-dasharray="1,5" points="8,-70 8,-195 628,-195 628,-70 8,-70"/>
</g>
<g id="clust2" class="cluster">
<title>cluster_SaladModule_declarations</title>
<polygon fill="none" stroke="black" points="340,-78 340,-130 620,-130 620,-78 340,-78"/>
</g>
<g id="clust5" class="cluster">
<title>cluster_SaladModule_imports</title>
<polygon fill="none" stroke="black" points="16,-78 16,-130 332,-130 332,-78 16,-78"/>
</g>
<!-- SaladComponent -->
<g id="node1" class="node">
<title>SaladComponent</title>
<polygon fill="#ffffb3" stroke="black" points="612.44,-122 499.56,-122 499.56,-86 612.44,-86 612.44,-122"/>
<text text-anchor="middle" x="556" y="-99.8" font-family="Times,serif" font-size="14.00">SaladComponent</text>
</g>
<!-- SaladModule -->
<g id="node3" class="node">
<title>SaladModule</title>
<polygon fill="#8dd3c7" stroke="black" points="380.15,-187 377.15,-191 356.15,-191 353.15,-187 289.85,-187 289.85,-151 380.15,-151 380.15,-187"/>
<text text-anchor="middle" x="335" y="-164.8" font-family="Times,serif" font-size="14.00">SaladModule</text>
</g>
<!-- SaladComponent&#45;&gt;SaladModule -->
<g id="edge1" class="edge">
<title>SaladComponent&#45;&gt;SaladModule</title>
<path fill="none" stroke="black" d="M556,-122.11C556,-141.34 556,-169 556,-169 556,-169 390.26,-169 390.26,-169"/>
<polygon fill="black" stroke="black" points="390.26,-165.5 380.26,-169 390.26,-172.5 390.26,-165.5"/>
</g>
<!-- ToppingsComponent -->
<g id="node2" class="node">
<title>ToppingsComponent</title>
<polygon fill="#ffffb3" stroke="black" points="482.22,-122 347.78,-122 347.78,-86 482.22,-86 482.22,-122"/>
<text text-anchor="middle" x="415" y="-99.8" font-family="Times,serif" font-size="14.00">ToppingsComponent</text>
</g>
<!-- ToppingsComponent&#45;&gt;SaladModule -->
<g id="edge2" class="edge">
<title>ToppingsComponent&#45;&gt;SaladModule</title>
<path fill="none" stroke="black" d="M364.11,-122.11C364.11,-122.11 364.11,-140.99 364.11,-140.99"/>
<polygon fill="black" stroke="black" points="360.61,-140.99 364.11,-150.99 367.61,-140.99 360.61,-140.99"/>
</g>
<!-- SaladRoutingModule -->
<g id="node4" class="node">
<title>SaladRoutingModule</title>
<polygon fill="#8dd3c7" stroke="black" points="323.77,-122 320.77,-126 299.77,-126 296.77,-122 188.23,-122 188.23,-86 323.77,-86 323.77,-122"/>
<text text-anchor="middle" x="256" y="-99.8" font-family="Times,serif" font-size="14.00">SaladRoutingModule</text>
</g>
<!-- SaladRoutingModule&#45;&gt;SaladModule -->
<g id="edge3" class="edge">
<title>SaladRoutingModule&#45;&gt;SaladModule</title>
<path fill="none" stroke="black" d="M306.78,-122.11C306.78,-122.11 306.78,-140.99 306.78,-140.99"/>
<polygon fill="black" stroke="black" points="303.28,-140.99 306.78,-150.99 310.28,-140.99 303.28,-140.99"/>
</g>
<!-- SharedMaterialModule -->
<g id="node5" class="node">
<title>SharedMaterialModule</title>
<polygon fill="#8dd3c7" stroke="black" points="169.84,-122 166.84,-126 145.84,-126 142.84,-122 24.16,-122 24.16,-86 169.84,-86 169.84,-122"/>
<text text-anchor="middle" x="97" y="-99.8" font-family="Times,serif" font-size="14.00">SharedMaterialModule</text>
</g>
<!-- SharedMaterialModule&#45;&gt;SaladModule -->
<g id="edge4" class="edge">
<title>SharedMaterialModule&#45;&gt;SaladModule</title>
<path fill="none" stroke="black" d="M97,-122.11C97,-141.34 97,-169 97,-169 97,-169 279.67,-169 279.67,-169"/>
<polygon fill="black" stroke="black" points="279.67,-172.5 289.67,-169 279.67,-165.5 279.67,-172.5"/>
</g>
</g>
</svg>
