<?xml version="1.0" encoding="UTF-8" standalone="no"?>
<!DOCTYPE svg PUBLIC "-//W3C//DTD SVG 1.1//EN"
 "http://www.w3.org/Graphics/SVG/1.1/DTD/svg11.dtd">
<!-- Generated by graphviz version 2.47.0 (20210316.0004)
 -->
<!-- Title: dependencies Pages: 1 -->
<svg width="504pt" height="211pt"
 viewBox="0.00 0.00 504.00 211.00" xmlns="http://www.w3.org/2000/svg" xmlns:xlink="http://www.w3.org/1999/xlink">
<g id="graph0" class="graph" transform="scale(1 1) rotate(0) translate(4 207)">
<title>dependencies</title>
<polygon fill="white" stroke="transparent" points="-4,4 -4,-207 500,-207 500,4 -4,4"/>
<text text-anchor="start" x="227.01" y="-42.4" font-family="Times-12" font-weight="bold" font-size="14.00">Legend</text>
<polygon fill="#ffffb3" stroke="transparent" points="14,-10 14,-30 34,-30 34,-10 14,-10"/>
<text text-anchor="start" x="37.63" y="-15.4" font-family="Times-12" font-size="14.00"> &#160;Declarations</text>
<polygon fill="#8dd3c7" stroke="transparent" points="127,-10 127,-30 147,-30 147,-10 127,-10"/>
<text text-anchor="start" x="150.73" y="-15.4" font-family="Times-12" font-size="14.00"> &#160;Module</text>
<polygon fill="#80b1d3" stroke="transparent" points="213,-10 213,-30 233,-30 233,-10 213,-10"/>
<text text-anchor="start" x="236.78" y="-15.4" font-family="Times-12" font-size="14.00"> &#160;Bootstrap</text>
<polygon fill="#fdb462" stroke="transparent" points="310,-10 310,-30 330,-30 330,-10 310,-10"/>
<text text-anchor="start" x="333.67" y="-15.4" font-family="Times-12" font-size="14.00"> &#160;Providers</text>
<polygon fill="#fb8072" stroke="transparent" points="406,-10 406,-30 426,-30 426,-10 406,-10"/>
<text text-anchor="start" x="429.73" y="-15.4" font-family="Times-12" font-size="14.00"> &#160;Exports</text>
<g id="clust1" class="cluster">
<title>cluster_KitchenModule</title>
<polygon fill="none" stroke="black" stroke-dasharray="1,5" points="83,-70 83,-195 413,-195 413,-70 83,-70"/>
</g>
<g id="clust2" class="cluster">
<title>cluster_KitchenModule_declarations</title>
<polygon fill="none" stroke="black" points="263,-78 263,-130 405,-130 405,-78 263,-78"/>
</g>
<g id="clust4" class="cluster">
<title>cluster_KitchenModule_imports</title>
<polygon fill="none" stroke="black" points="91,-78 91,-130 255,-130 255,-78 91,-78"/>
</g>
<!-- KitchenComponent -->
<g id="node1" class="node">
<title>KitchenComponent</title>
<polygon fill="#ffffb3" stroke="black" points="396.65,-122 271.35,-122 271.35,-86 396.65,-86 396.65,-122"/>
<text text-anchor="middle" x="334" y="-99.8" font-family="Times,serif" font-size="14.00">KitchenComponent</text>
</g>
<!-- KitchenModule -->
<g id="node2" class="node">
<title>KitchenModule</title>
<polygon fill="#8dd3c7" stroke="black" points="304.87,-187 301.87,-191 280.87,-191 277.87,-187 201.13,-187 201.13,-151 304.87,-151 304.87,-187"/>
<text text-anchor="middle" x="253" y="-164.8" font-family="Times,serif" font-size="14.00">KitchenModule</text>
</g>
<!-- KitchenComponent&#45;&gt;KitchenModule -->
<g id="edge1" class="edge">
<title>KitchenComponent&#45;&gt;KitchenModule</title>
<path fill="none" stroke="black" d="M288.05,-122.11C288.05,-122.11 288.05,-140.99 288.05,-140.99"/>
<polygon fill="black" stroke="black" points="284.55,-140.99 288.05,-150.99 291.55,-140.99 284.55,-140.99"/>
</g>
<!-- KitchenRoutingModule -->
<g id="node3" class="node">
<title>KitchenRoutingModule</title>
<polygon fill="#8dd3c7" stroke="black" points="247.48,-122 244.48,-126 223.48,-126 220.48,-122 98.52,-122 98.52,-86 247.48,-86 247.48,-122"/>
<text text-anchor="middle" x="173" y="-99.8" font-family="Times,serif" font-size="14.00">KitchenRoutingModule</text>
</g>
<!-- KitchenRoutingModule&#45;&gt;KitchenModule -->
<g id="edge2" class="edge">
<title>KitchenRoutingModule&#45;&gt;KitchenModule</title>
<path fill="none" stroke="black" d="M224.28,-122.11C224.28,-122.11 224.28,-140.99 224.28,-140.99"/>
<polygon fill="black" stroke="black" points="220.78,-140.99 224.28,-150.99 227.78,-140.99 220.78,-140.99"/>
</g>
</g>
</svg>
